<svg width="20" height="20" viewBox="0 0 24 24" fill="none" xmlns="http://www.w3.org/2000/svg"><path fill-rule="evenodd" clip-rule="evenodd" d="M20 1a3 3 0 0 1 3 3v16a3 3 0 0 1-3 3H4a3 3 0 0 1-3-3V4a3 3 0 0 1 3-3h16zm0 2a1 1 0 0 1 1 1v16a1 1 0 0 1-1 1h-5v-7h2.076a1 1 0 0 0 .949-.684l.443-1.329a.75.75 0 0 0-.712-.987H15V9c0-.5.5-1 1-1h2a1 1 0 0 0 1-1v-.686a.71.71 0 0 0-.519-.695C17.171 5.273 16 5.273 16 5.273c-2.5 0-4 1.727-4 3.227V11h-2a1 1 0 0 0-1 1v1a1 1 0 0 0 1 1h2v7H4a1 1 0 0 1-1-1V4a1 1 0 0 1 1-1h16z" fill="white"/></svg>