<svg width="20" height="20" viewBox="0 0 32 32" id="Camada_1" version="1.1" xml:space="preserve" xmlns="http://www.w3.org/2000/svg"><style>.st0{fill:#fff}</style><path d="M6 2h20c2.2 0 4 1.8 4 4v20c0 2.2-1.8 4-4 4H6c-2.2 0-4-1.8-4-4V6c0-2.2 1.8-4 4-4z"/><path class="st0" d="M10.1 19.9h-2v-8.8h3l.5 3.7h.1l.5-3.7h3v8.8h-2v-5.3H13l-.7 5.3h-1.5l-.8-5.3.1 5.3zM15.9 11c.4 0 2.5 0 3.7.1.9.1 1.4.9 1.5 1.8 0 1.7 0 3.5.1 5.2 0 .2 0 .4-.1.6-.2.7-.6 1.1-1.5 1.2-1.2.1-2.3 0-3.5.1h-.2v-9zm2.3 1.7v5.6c.4 0 .6-.1.6-.5v-4.6c0-.4-.2-.6-.6-.5zM5 19.9v-8.8h2.3v8.8H5zM26.9 14.4c-.1-.6-.5-1-1.1-1.1-.6-.1-1.2 0-1.8.6v-2.8h-2.2v8.8h2c0-.2.1-.3.1-.4.1.1.2.1.3.2.6.4 1.2.5 1.8.2.6-.2.8-.7.8-1.3 0-.7.1-1.3.1-2 .1-.7.1-1.5 0-2.2zm-2.2 4c0 .2-.2.4-.4.4s-.4-.2-.4-.4V15c0-.2.2-.4.4-.4s.4.2.4.4v3.4z"/></svg>